<?xml version="1.0" encoding="utf-8"?>
<!-- Generator: Adobe Illustrator 24.1.0, SVG Export Plug-In . SVG Version: 6.00 Build 0)  -->
<svg version="1.1" xmlns="http://www.w3.org/2000/svg" xmlns:xlink="http://www.w3.org/1999/xlink" x="0px" y="0px"
	 viewBox="0 0 24 24" style="enable-background:new 0 0 24 24;" xml:space="preserve">
<style type="text/css">
	.st0{fill:none;}
</style>
<g id="Legal_Website_02">
</g>
<g id="Briefcase_03">
	<path d="M21.1,8.44h-4.91V5.58c0-0.74-0.85-1.32-1.58-1.32h-0.2l-0.46-0.72c-0.12-0.19-0.22-0.33-0.33-0.47
		c-0.1-0.13-0.21-0.21-0.4-0.3l-0.25-0.13c-0.03-0.02-0.05-0.05-0.05-0.08V1.5c0-0.16-0.13-0.28-0.28-0.28s-0.28,0.13-0.28,0.28
		v1.06c0,0.25,0.14,0.47,0.35,0.58l0.25,0.13c0.14,0.07,0.18,0.11,0.22,0.16c0.09,0.11,0.19,0.24,0.29,0.41l0.27,0.42h-0.68
		c-0.16,0-0.28,0.13-0.28,0.28v1.81c0,0.17,0.02,0.34,0.07,0.5l0.12,0.43c0.01,0.05,0.01,0.1-0.02,0.13
		c-0.01,0.02-0.04,0.04-0.08,0.04c-0.05,0-0.09-0.04-0.1-0.09l-0.25-0.88c-0.04-0.15-0.2-0.23-0.35-0.19
		c-0.15,0.04-0.24,0.2-0.19,0.35l0.25,0.88c0,0.01,0.01,0.02,0.01,0.03c-0.02,0.04-0.05,0.08-0.1,0.08c-0.05,0-0.09-0.04-0.1-0.09
		l-0.25-0.88c-0.04-0.15-0.2-0.24-0.35-0.19c-0.15,0.04-0.24,0.2-0.19,0.35l0.17,0.58c-0.02,0.03-0.05,0.05-0.08,0.05
		c-0.04,0-0.09-0.04-0.1-0.09l-0.07-0.26c0,0,0,0,0,0l-0.18-0.62c-0.04-0.15-0.2-0.23-0.35-0.19c-0.15,0.04-0.24,0.2-0.19,0.35
		l0.15,0.51c-0.02,0.02-0.04,0.03-0.07,0.03c-0.05,0-0.09-0.04-0.1-0.09l-0.08-0.28c-0.11-0.37-0.16-0.76-0.16-1.16V4.15
		c0-0.25,0.06-0.51,0.16-0.73l0.03-0.06c0.05-0.11,0.08-0.23,0.08-0.36V1.5c0-0.16-0.13-0.28-0.28-0.28S9.89,1.34,9.89,1.5V3
		c0,0.04-0.01,0.08-0.03,0.12L9.83,3.18c-0.14,0.3-0.22,0.64-0.22,0.97v0.11H9.13c-0.73,0-1.32,0.59-1.32,1.32v2.86H2.9
		c-0.51,0-0.93,0.42-0.93,0.93v2.46c0,0.51,0.42,0.93,0.93,0.93l0.37,0v7.57c0,1.35,1.1,2.45,2.45,2.45h12.57
		c1.35,0,2.45-1.1,2.45-2.45v-7.57h0.37c0.51,0,0.93-0.42,0.93-0.93V9.38C22.03,8.86,21.61,8.44,21.1,8.44z M15.63,5.58v2.86h-0.78
		V6.64c0-0.41-0.33-0.74-0.74-0.74h-0.76V4.82h1.26C15.05,4.82,15.63,5.19,15.63,5.58z M10.52,7.75c0.09,0,0.17-0.02,0.25-0.05
		c0.12,0.2,0.33,0.32,0.56,0.32c0.11,0,0.21-0.03,0.3-0.07c0.12,0.16,0.31,0.25,0.52,0.25c0.2,0,0.37-0.09,0.49-0.23
		c0.07,0.03,0.15,0.05,0.24,0.05c0.21,0,0.4-0.1,0.53-0.27c0.13-0.18,0.18-0.41,0.11-0.63L13.39,6.7c-0.02-0.08-0.03-0.16-0.04-0.23
		h0.76c0.1,0,0.18,0.08,0.18,0.18v1.81H9.67V6.64c0-0.03,0.01-0.06,0.03-0.09c0.03,0.15,0.06,0.29,0.1,0.43l0.08,0.28
		C9.97,7.55,10.22,7.75,10.52,7.75z M8.37,5.58c0-0.42,0.34-0.76,0.76-0.76h0.49v0.84c0,0.09,0,0.18,0.01,0.27
		c-0.3,0.09-0.52,0.37-0.52,0.7v1.81H8.37V5.58z M3.83,20.33v-0.06h1.1c0.46,0,0.84,0.38,0.84,0.84v1.1H5.71
		C4.67,22.22,3.83,21.37,3.83,20.33z M18.29,22.22h-0.06v-1.1c0-0.46,0.38-0.84,0.84-0.84h1.1v0.06
		C20.17,21.37,19.33,22.22,18.29,22.22z M20.17,19.71h-1.1c-0.77,0-1.4,0.63-1.4,1.4v1.1H6.33v-1.1c0-0.77-0.63-1.4-1.4-1.4h-1.1
		v-6.95l6.01,0v0.35c0,0.31,0.25,0.57,0.57,0.57h0.69v0.78c0,0.31,0.25,0.57,0.57,0.57h0.68c0.31,0,0.57-0.25,0.57-0.57v-0.78h0.68
		c0.31,0,0.57-0.25,0.57-0.57v-0.35h6.01V19.71z M11.66,13.68h0.69v0.78c0,0,0,0,0,0l-0.68,0V13.68z M10.4,13.11l0-1.23l3.19,0v1.22
		c0,0,0,0,0,0L10.4,13.11z M21.47,11.83c0,0.2-0.17,0.37-0.37,0.37h-6.94v-0.31c0-0.31-0.25-0.57-0.57-0.57h-3.18
		c-0.31,0-0.57,0.25-0.57,0.57v0.31l-6.94,0c-0.2,0-0.37-0.17-0.37-0.37V9.38c0-0.2,0.17-0.37,0.37-0.37h18.2
		c0.2,0,0.37,0.17,0.37,0.37V11.83z"/>
	<rect class="st0" width="24" height="24"/>
</g>
<g id="Legal_Agreement">
</g>
<g id="Evidence">
</g>
<g id="Time_is_Money">
</g>
<g id="Legal_Books">
</g>
<g id="Gun">
</g>
<g id="Prison">
</g>
<g id="Lawyer_03">
</g>
<g id="Policeman">
</g>
<g id="Jury">
</g>
<g id="Policeman_Hat">
</g>
<g id="Investigation">
</g>
<g id="Policeman_Equipment">
</g>
<g id="Sheriff_Badge">
</g>
<g id="Briefcase_02">
</g>
<g id="Lawyer_02">
</g>
<g id="Criminal">
</g>
<g id="Judge_02">
</g>
<g id="Legal_Document_02">
</g>
<g id="Agreement_03">
</g>
<g id="Fingerprint">
</g>
<g id="Lawyer_01">
</g>
<g id="Handcuff">
</g>
<g id="Department_of_Family_Services">
</g>
<g id="Constitution_02">
</g>
<g id="Judge_01">
</g>
<g id="Briefcase_01">
</g>
<g id="Courthouse_02">
</g>
<g id="Testimony">
</g>
<g id="Agreement_02">
</g>
<g id="Law_Enforcement">
</g>
<g id="Veredict_02">
</g>
<g id="Agreement_01">
</g>
<g id="Justice_Concept">
</g>
<g id="Veredict_01">
</g>
<g id="ID">
</g>
<g id="Individual">
</g>
<g id="Police_Manual">
</g>
<g id="Courthouse_01">
</g>
<g id="Justice">
</g>
<g id="Legal_Document_01">
</g>
<g id="Security_Badge">
</g>
<g id="Policeman_Badge">
</g>
<g id="Scale_of_Justice">
</g>
<g id="Legal_Study">
</g>
<g id="Jail">
</g>
<g id="Gavel">
</g>
<g id="Legal_Website_01">
</g>
<g id="Constitution_01">
</g>
</svg>
