<?xml version="1.0" encoding="utf-8"?>
<!-- Generator: Adobe Illustrator 24.1.0, SVG Export Plug-In . SVG Version: 6.00 Build 0)  -->
<svg version="1.1" xmlns="http://www.w3.org/2000/svg" xmlns:xlink="http://www.w3.org/1999/xlink" x="0px" y="0px"
	 viewBox="0 0 24 24" style="enable-background:new 0 0 24 24;" xml:space="preserve">
<style type="text/css">
	.st0{fill:none;}
</style>
<g id="Legal_Website_02">
</g>
<g id="Briefcase_03">
</g>
<g id="Legal_Agreement">
</g>
<g id="Evidence">
</g>
<g id="Time_is_Money">
</g>
<g id="Legal_Books">
</g>
<g id="Gun">
</g>
<g id="Prison">
</g>
<g id="Lawyer_03">
</g>
<g id="Policeman">
</g>
<g id="Jury">
</g>
<g id="Policeman_Hat">
</g>
<g id="Investigation">
</g>
<g id="Policeman_Equipment">
</g>
<g id="Sheriff_Badge">
</g>
<g id="Briefcase_02">
</g>
<g id="Lawyer_02">
</g>
<g id="Criminal">
</g>
<g id="Judge_02">
</g>
<g id="Legal_Document_02">
</g>
<g id="Agreement_03">
</g>
<g id="Fingerprint">
</g>
<g id="Lawyer_01">
</g>
<g id="Handcuff">
</g>
<g id="Department_of_Family_Services">
</g>
<g id="Constitution_02">
</g>
<g id="Judge_01">
</g>
<g id="Briefcase_01">
	<g>
		<path d="M21.86,7.69h-3.84V7.53c0-0.45-0.37-0.82-0.82-0.82h-3.92c-0.11-0.89-0.71-1.65-1.55-1.95C11.69,4.39,11.38,4.1,11,4.1
			H8.27c-0.38,0-0.69,0.29-0.73,0.66c-0.85,0.3-1.45,1.06-1.55,1.95H2.07c-0.45,0-0.82,0.37-0.82,0.82v2.04
			c0,0.45,0.37,0.82,0.82,0.82l0.26,0v6.25c0,1.15,0.93,2.08,2.08,2.08h8.41V19c0,0.49,0.4,0.89,0.89,0.89h6.97
			c0.49,0,0.89-0.4,0.89-0.89v-0.2h0.28c0.49,0,0.89-0.4,0.89-0.89V8.59C22.75,8.09,22.35,7.69,21.86,7.69z M8.09,4.85
			c0-0.1,0.08-0.18,0.18-0.18H11c0.1,0,0.18,0.08,0.18,0.18v0.12c0,0.1-0.08,0.18-0.18,0.18H8.27c-0.1,0-0.18-0.08-0.18-0.18V4.85z
			 M7.63,5.33C7.76,5.56,8,5.71,8.27,5.71H11c0.28,0,0.51-0.15,0.64-0.38c0.57,0.24,0.98,0.76,1.08,1.38H6.56
			C6.65,6.09,7.06,5.57,7.63,5.33z M2.07,9.83c-0.14,0-0.26-0.12-0.26-0.26V7.53c0-0.14,0.12-0.26,0.26-0.26H17.2
			c0.14,0,0.26,0.12,0.26,0.26v0.16h-2.58c-0.49,0-0.89,0.4-0.89,0.89v0.2h-0.28c-0.49,0-0.89,0.4-0.89,0.89v0.15h-1.34V9.62
			c0-0.29-0.23-0.52-0.52-0.52H8.31c-0.29,0-0.52,0.23-0.52,0.52v0.21L2.07,9.83z M9.4,11.16h0.48v0.56H9.4V11.16z M10.16,10.59
			H9.11H8.35V9.66h2.56v0.93H10.16z M2.89,16.64h0.87c0.36,0,0.65,0.29,0.65,0.65v0.87C3.57,18.16,2.89,17.48,2.89,16.64z
			 M4.97,18.16v-0.87c0-0.67-0.54-1.21-1.21-1.21H2.89v-5.69l4.9,0v0.25c0,0.29,0.23,0.52,0.52,0.52h0.52v0.6
			c0,0.29,0.23,0.52,0.52,0.52h0.57c0.29,0,0.52-0.23,0.52-0.52v-0.6h0.52c0.29,0,0.52-0.23,0.52-0.52v-0.24h1.34v7.77H4.97z
			 M21.02,19c0,0.18-0.15,0.33-0.33,0.33h-6.97c-0.18,0-0.33-0.15-0.33-0.33V9.68c0-0.18,0.15-0.33,0.33-0.33h6.97
			c0.18,0,0.33,0.15,0.33,0.33V19z M22.19,17.9c0,0.18-0.15,0.33-0.33,0.33h-0.28V9.68c0-0.49-0.4-0.89-0.89-0.89h-6.13v-0.2
			c0-0.18,0.15-0.33,0.33-0.33h6.98c0.18,0,0.33,0.15,0.33,0.33V17.9z"/>
		<path d="M19.54,10.55h-4.69c-0.16,0-0.28,0.13-0.28,0.28s0.13,0.28,0.28,0.28h4.69c0.16,0,0.28-0.13,0.28-0.28
			S19.7,10.55,19.54,10.55z"/>
		<path d="M19.54,12.3h-4.69c-0.16,0-0.28,0.13-0.28,0.28s0.13,0.28,0.28,0.28h4.69c0.16,0,0.28-0.13,0.28-0.28
			S19.7,12.3,19.54,12.3z"/>
		<path d="M19.54,14.06h-4.69c-0.16,0-0.28,0.13-0.28,0.28s0.13,0.28,0.28,0.28h4.69c0.16,0,0.28-0.13,0.28-0.28
			S19.7,14.06,19.54,14.06z"/>
		<path d="M17.16,15.82h-2.31c-0.16,0-0.28,0.13-0.28,0.28s0.13,0.28,0.28,0.28h2.31c0.16,0,0.28-0.13,0.28-0.28
			S17.32,15.82,17.16,15.82z"/>
	</g>
	<rect class="st0" width="24" height="24"/>
</g>
<g id="Courthouse_02">
</g>
<g id="Testimony">
</g>
<g id="Agreement_02">
</g>
<g id="Law_Enforcement">
</g>
<g id="Veredict_02">
</g>
<g id="Agreement_01">
</g>
<g id="Justice_Concept">
</g>
<g id="Veredict_01">
</g>
<g id="ID">
</g>
<g id="Individual">
</g>
<g id="Police_Manual">
</g>
<g id="Courthouse_01">
</g>
<g id="Justice">
</g>
<g id="Legal_Document_01">
</g>
<g id="Security_Badge">
</g>
<g id="Policeman_Badge">
</g>
<g id="Scale_of_Justice">
</g>
<g id="Legal_Study">
</g>
<g id="Jail">
</g>
<g id="Gavel">
</g>
<g id="Legal_Website_01">
</g>
<g id="Constitution_01">
</g>
</svg>
