<?xml version="1.0" encoding="utf-8"?>
<!-- Generator: Adobe Illustrator 24.1.0, SVG Export Plug-In . SVG Version: 6.00 Build 0)  -->
<svg version="1.1" xmlns="http://www.w3.org/2000/svg" xmlns:xlink="http://www.w3.org/1999/xlink" x="0px" y="0px"
	 viewBox="0 0 24 24" style="enable-background:new 0 0 24 24;" xml:space="preserve">
<style type="text/css">
	.st0{fill:none;}
</style>
<g id="Legal_Website_02">
</g>
<g id="Briefcase_03">
</g>
<g id="Legal_Agreement">
</g>
<g id="Evidence">
</g>
<g id="Time_is_Money">
</g>
<g id="Legal_Books">
</g>
<g id="Gun">
</g>
<g id="Prison">
</g>
<g id="Lawyer_03">
</g>
<g id="Policeman">
</g>
<g id="Jury">
</g>
<g id="Policeman_Hat">
</g>
<g id="Investigation">
</g>
<g id="Policeman_Equipment">
</g>
<g id="Sheriff_Badge">
</g>
<g id="Briefcase_02">
</g>
<g id="Lawyer_02">
</g>
<g id="Criminal">
</g>
<g id="Judge_02">
</g>
<g id="Legal_Document_02">
</g>
<g id="Agreement_03">
</g>
<g id="Fingerprint">
</g>
<g id="Lawyer_01">
</g>
<g id="Handcuff">
</g>
<g id="Department_of_Family_Services">
</g>
<g id="Constitution_02">
</g>
<g id="Judge_01">
</g>
<g id="Briefcase_01">
</g>
<g id="Courthouse_02">
	<g>
		<path d="M9.42,19.03H1.86v-0.49c0-0.19,0.16-0.35,0.35-0.35H3.9h2.17h2.47c0.16,0,0.28-0.13,0.28-0.28s-0.13-0.28-0.28-0.28H6.35
			v-7.52C6.72,10.1,7.02,9.8,7.02,9.42V8.04h1.54v1.39c0,0.37,0.3,0.68,0.67,0.69v5.16c0,0.16,0.13,0.28,0.28,0.28
			s0.28-0.13,0.28-0.28v-5.16h1.6v1.2c0,0.16,0.13,0.28,0.28,0.28s0.28-0.13,0.28-0.28v-1.2c0.37-0.01,0.67-0.31,0.67-0.69V8.04
			h1.54v1.39c0,0.37,0.3,0.68,0.67,0.69v1.21c0,0.16,0.13,0.28,0.28,0.28s0.28-0.13,0.28-0.28v-1.21H17v1.23
			c0,0.16,0.13,0.28,0.28,0.28s0.28-0.13,0.28-0.28v-1.23c0.37-0.01,0.67-0.31,0.67-0.69V8.04h0.55c0.51,0,0.92-0.33,1.02-0.83
			c0.11-0.49-0.13-0.97-0.59-1.18l-8.19-3.74c-0.28-0.13-0.59-0.13-0.87,0L1.96,6.03C1.5,6.24,1.27,6.72,1.37,7.21
			C1.48,7.7,1.89,8.04,2.4,8.04h0.55v1.39c0,0.37,0.3,0.68,0.67,0.69v7.52H2.21c-0.5,0-0.91,0.41-0.91,0.91v0.77
			c0,0.16,0.13,0.28,0.28,0.28h7.84c0.16,0,0.28-0.13,0.28-0.28S9.57,19.03,9.42,19.03z M12.06,9.42c0,0.07-0.06,0.13-0.13,0.13
			h-0.26H9.51H9.25c-0.07,0-0.13-0.06-0.13-0.13V8.04h2.94V9.42z M17.66,9.42c0,0.07-0.06,0.13-0.13,0.13h-0.26h-2.17h-0.26
			c-0.07,0-0.13-0.06-0.13-0.13V8.04h2.94V9.42z M1.92,7.09C1.88,6.91,1.93,6.67,2.2,6.54l8.19-3.74c0.06-0.03,0.13-0.04,0.2-0.04
			c0.07,0,0.14,0.01,0.2,0.04l8.19,3.74c0.26,0.12,0.31,0.36,0.27,0.55s-0.19,0.38-0.48,0.38h-0.84h-3.5h-2.1h-3.5h-2.1h-3.5H2.4
			C2.11,7.47,1.96,7.28,1.92,7.09z M3.52,9.42V8.04h2.94v1.39c0,0.07-0.06,0.13-0.13,0.13H6.07H3.9H3.64
			C3.57,9.55,3.52,9.49,3.52,9.42z M4.18,10.11h1.6v7.52h-1.6V10.11z"/>
		<path d="M22.56,17.05c-0.11-0.12-0.26-0.19-0.43-0.19h-0.06l-1.49-3.72l0.05-0.01c0.15-0.03,0.25-0.18,0.21-0.34
			s-0.18-0.25-0.34-0.21l-0.31,0.07c-0.01,0-0.02,0-0.03,0c-0.01,0-0.02,0-0.03,0c-0.01,0-0.02,0.01-0.03,0.01
			c-0.01,0-0.01,0-0.02,0.01c0,0,0,0,0,0c0,0-0.01,0-0.01,0l-1.32,0.3c-0.68,0.15-1.41,0.02-1.99-0.37l-0.5-0.33v-0.59
			c0-0.16-0.13-0.28-0.28-0.28s-0.28,0.13-0.28,0.28v0.59l-0.5,0.33c-0.58,0.39-1.31,0.52-1.99,0.37l-1.32-0.3c0,0-0.01,0-0.01,0
			c0,0,0,0,0,0c-0.01,0-0.01,0-0.02-0.01c-0.01,0-0.02-0.01-0.03-0.01c-0.01,0-0.02,0-0.03,0c-0.01,0-0.02,0-0.03,0l-0.31-0.07
			c-0.15-0.03-0.3,0.06-0.34,0.21c-0.03,0.15,0.06,0.3,0.21,0.34l0.05,0.01L9.9,16.85H9.85c-0.16,0-0.32,0.07-0.43,0.19
			c-0.11,0.12-0.15,0.29-0.13,0.45c0.18,1.23,1.25,2.15,2.49,2.15s2.31-0.93,2.49-2.15c0.02-0.16-0.02-0.32-0.13-0.45
			c-0.11-0.12-0.26-0.19-0.43-0.19h-0.06l-1.41-3.53l0.85,0.19c0.23,0.05,0.45,0.08,0.68,0.08c0.62,0,1.23-0.18,1.75-0.53l0.19-0.13
			v8.38h-1.36c-0.16,0-0.28,0.13-0.28,0.28s0.13,0.28,0.28,0.28h3.31c0.16,0,0.28-0.13,0.28-0.28s-0.13-0.28-0.28-0.28h-1.39v-8.38
			l0.19,0.13c0.52,0.35,1.13,0.53,1.75,0.53c0.23,0,0.46-0.02,0.68-0.08l0.85-0.19l-1.41,3.53h-0.06c-0.16,0-0.32,0.07-0.43,0.19
			c-0.11,0.12-0.15,0.29-0.13,0.45c0.18,1.23,1.25,2.15,2.49,2.15c1.24,0,2.31-0.93,2.49-2.15C22.72,17.34,22.67,17.17,22.56,17.05z
			 M11.78,19.09c-0.96,0-1.8-0.72-1.93-1.67h3.86C13.57,18.37,12.74,19.09,11.78,19.09z M10.51,16.85l1.27-3.18l1.27,3.18H10.51z
			 M20.21,13.68l1.27,3.18h-2.54L20.21,13.68z M20.21,19.09c-0.96,0-1.8-0.72-1.93-1.67l3.86,0C22,18.37,21.17,19.09,20.21,19.09z"
			/>
	</g>
	<rect class="st0" width="24" height="24"/>
</g>
<g id="Testimony">
</g>
<g id="Agreement_02">
</g>
<g id="Law_Enforcement">
</g>
<g id="Veredict_02">
</g>
<g id="Agreement_01">
</g>
<g id="Justice_Concept">
</g>
<g id="Veredict_01">
</g>
<g id="ID">
</g>
<g id="Individual">
</g>
<g id="Police_Manual">
</g>
<g id="Courthouse_01">
</g>
<g id="Justice">
</g>
<g id="Legal_Document_01">
</g>
<g id="Security_Badge">
</g>
<g id="Policeman_Badge">
</g>
<g id="Scale_of_Justice">
</g>
<g id="Legal_Study">
</g>
<g id="Jail">
</g>
<g id="Gavel">
</g>
<g id="Legal_Website_01">
</g>
<g id="Constitution_01">
</g>
</svg>
