<?xml version="1.0" encoding="utf-8"?>
<!-- Generator: Adobe Illustrator 24.1.0, SVG Export Plug-In . SVG Version: 6.00 Build 0)  -->
<svg version="1.1" xmlns="http://www.w3.org/2000/svg" xmlns:xlink="http://www.w3.org/1999/xlink" x="0px" y="0px"
	 viewBox="0 0 24 24" style="enable-background:new 0 0 24 24;" xml:space="preserve">
<style type="text/css">
	.st0{fill:none;}
</style>
<g id="Legal_Website_02">
</g>
<g id="Briefcase_03">
</g>
<g id="Legal_Agreement">
</g>
<g id="Evidence">
</g>
<g id="Time_is_Money">
</g>
<g id="Legal_Books">
</g>
<g id="Gun">
</g>
<g id="Prison">
</g>
<g id="Lawyer_03">
</g>
<g id="Policeman">
</g>
<g id="Jury">
</g>
<g id="Policeman_Hat">
</g>
<g id="Investigation">
</g>
<g id="Policeman_Equipment">
</g>
<g id="Sheriff_Badge">
</g>
<g id="Briefcase_02">
</g>
<g id="Lawyer_02">
</g>
<g id="Criminal">
</g>
<g id="Judge_02">
</g>
<g id="Legal_Document_02">
</g>
<g id="Agreement_03">
</g>
<g id="Fingerprint">
</g>
<g id="Lawyer_01">
</g>
<g id="Handcuff">
</g>
<g id="Department_of_Family_Services">
</g>
<g id="Constitution_02">
</g>
<g id="Judge_01">
</g>
<g id="Briefcase_01">
</g>
<g id="Courthouse_02">
</g>
<g id="Testimony">
</g>
<g id="Agreement_02">
</g>
<g id="Law_Enforcement">
</g>
<g id="Veredict_02">
	<g>
		<path d="M22.76,6.18c0-0.01,0-0.01,0-0.02c-0.08-0.26-0.23-0.5-0.44-0.68l-3.97-3.34c-0.25-0.21-0.57-0.33-0.9-0.33H8.46
			c-0.86,0-1.57,0.77-1.57,1.73v6.28c0,0.16,0.13,0.28,0.28,0.28s0.28-0.13,0.28-0.28V3.55c0-0.64,0.45-1.16,1-1.16h8.99
			c0.17,0,0.33,0.06,0.47,0.15v3.06c0,0.51,0.41,0.92,0.92,0.92h3.4c0,0.01,0,0.03,0,0.04v12.71c0,0.59-0.48,1.07-1.07,1.07h-8.92
			c-0.16,0-0.28,0.13-0.28,0.28s0.13,0.28,0.28,0.28h8.92c0.9,0,1.64-0.73,1.64-1.64V6.56C22.81,6.43,22.79,6.3,22.76,6.18z
			 M18.84,5.95c-0.2,0-0.36-0.16-0.36-0.36V3l3.47,2.92c0.01,0.01,0.02,0.02,0.03,0.03H18.84z"/>
		<path d="M11.59,21.81h-1.8V11.16l0.34,0.23c0.63,0.42,1.38,0.64,2.14,0.64c0.28,0,0.56-0.03,0.84-0.09l1.19-0.27l-1.83,4.57h-0.12
			c-0.18,0-0.36,0.08-0.48,0.22c-0.12,0.14-0.17,0.32-0.15,0.5c0.22,1.5,1.52,2.62,3.03,2.62c1.51,0,2.82-1.13,3.03-2.62
			c0.03-0.18-0.03-0.36-0.15-0.5c-0.12-0.14-0.29-0.22-0.48-0.22h-0.12l-1.91-4.76l0.14-0.03c0.15-0.03,0.25-0.18,0.21-0.34
			c-0.03-0.15-0.18-0.25-0.34-0.21l-0.4,0.09c0,0,0,0-0.01,0c-0.01,0-0.02,0-0.03,0c-0.01,0-0.02,0-0.03,0
			c-0.01,0-0.02,0.01-0.03,0.01c-0.01,0-0.01,0-0.02,0.01c0,0,0,0,0,0c0,0-0.01,0-0.01,0.01l-1.66,0.37
			c-0.87,0.2-1.8,0.02-2.54-0.47l-0.65-0.44V9.71c0-0.16-0.13-0.28-0.28-0.28S9.23,9.55,9.23,9.71v0.78l-0.65,0.44
			c-0.74,0.5-1.67,0.67-2.54,0.47l-1.66-0.37c0,0-0.01,0-0.01-0.01c0,0,0,0,0,0c-0.01,0-0.01,0-0.02-0.01C4.33,11,4.32,11,4.31,11
			c-0.01,0-0.02,0-0.03,0c-0.01,0-0.02,0-0.03,0c0,0,0,0-0.01,0l-0.4-0.09c-0.15-0.03-0.3,0.06-0.34,0.21
			c-0.03,0.15,0.06,0.3,0.21,0.34l0.14,0.03l-1.91,4.76H1.85c-0.18,0-0.36,0.08-0.48,0.22c-0.12,0.14-0.17,0.32-0.15,0.5
			c0.22,1.5,1.52,2.62,3.03,2.62s2.82-1.13,3.03-2.63c0.03-0.18-0.03-0.36-0.15-0.5c-0.12-0.14-0.29-0.22-0.48-0.22H6.55l-1.83-4.57
			l1.19,0.27c0.28,0.06,0.56,0.09,0.84,0.09c0.75,0,1.5-0.22,2.14-0.64l0.34-0.23v10.65H7.46c-0.16,0-0.28,0.13-0.28,0.28
			s0.13,0.28,0.28,0.28h4.13c0.16,0,0.28-0.13,0.28-0.28S11.75,21.81,11.59,21.81z M17.22,16.83c0.01,0.01,0.02,0.03,0.02,0.05
			c-0.18,1.22-1.24,2.14-2.48,2.14c-1.24,0-2.3-0.92-2.48-2.14c0-0.03,0.01-0.04,0.02-0.05c0.01-0.01,0.03-0.02,0.05-0.02h4.82
			C17.2,16.81,17.22,16.82,17.22,16.83z M13.08,16.25l1.69-4.22l1.69,4.22H13.08z M6.72,16.83c0.01,0.01,0.02,0.03,0.02,0.05
			c-0.18,1.22-1.24,2.14-2.48,2.14s-2.3-0.92-2.48-2.14c0-0.03,0.01-0.04,0.02-0.05c0.01-0.01,0.03-0.02,0.05-0.02h4.82
			C6.69,16.81,6.71,16.82,6.72,16.83z M2.57,16.25l1.69-4.22l1.69,4.22H2.57z"/>
	</g>
	<rect class="st0" width="24" height="24"/>
</g>
<g id="Agreement_01">
</g>
<g id="Justice_Concept">
</g>
<g id="Veredict_01">
</g>
<g id="ID">
</g>
<g id="Individual">
</g>
<g id="Police_Manual">
</g>
<g id="Courthouse_01">
</g>
<g id="Justice">
</g>
<g id="Legal_Document_01">
</g>
<g id="Security_Badge">
</g>
<g id="Policeman_Badge">
</g>
<g id="Scale_of_Justice">
</g>
<g id="Legal_Study">
</g>
<g id="Jail">
</g>
<g id="Gavel">
</g>
<g id="Legal_Website_01">
</g>
<g id="Constitution_01">
</g>
</svg>
