<svg xmlns="http://www.w3.org/2000/svg" xmlns:xlink="http://www.w3.org/1999/xlink" x="0px" y="0px" viewBox="0 0 24 24" style="enable-background:new 0 0 24 24;" xml:space="preserve"><style type="text/css">	.st0{fill:none;}</style><g id="Legal_Website_02"></g><g id="Briefcase_03"></g><g id="Legal_Agreement"></g><g id="Evidence"></g><g id="Time_is_Money"></g><g id="Legal_Books"></g><g id="Gun"></g><g id="Prison"></g><g id="Lawyer_03"></g><g id="Policeman"></g><g id="Jury"></g><g id="Policeman_Hat"></g><g id="Investigation"></g><g id="Policeman_Equipment"></g><g id="Sheriff_Badge"></g><g id="Briefcase_02"></g><g id="Lawyer_02"></g><g id="Criminal"></g><g id="Judge_02"></g><g></g><g id="Agreement_03"></g><g id="Fingerprint"></g><g id="Lawyer_01"></g><g id="Handcuff"></g><g id="Department_of_Family_Services"></g><g id="Constitution_02"></g><g id="Judge_01"></g><g id="Briefcase_01"></g><g id="Courthouse_02"></g><g id="Testimony"></g><g id="Agreement_02"></g><g id="Law_Enforcement"></g><g id="Veredict_02"></g><g id="Agreement_01"></g><g id="Justice_Concept"></g><g id="Veredict_01"></g><g id="ID"></g><g id="Individual"></g><g id="Police_Manual"></g><g id="Courthouse_01"></g><g id="Justice"></g><g></g><g id="Security_Badge"></g><g id="Policeman_Badge"></g><g id="Scale_of_Justice"></g><g id="Legal_Study"></g><g id="Jail"></g><g id="Gavel">	<g>		<path d="M22.33,15.13L21.9,14.7c0,0,0,0,0,0c-0.24-0.24-0.63-0.24-0.87,0c-0.02,0.02-0.05,0.02-0.07,0l-4.73-4.73l1.86-1.86   c0.14,0.04,0.29,0.06,0.44,0.06c0.42,0,0.82-0.16,1.12-0.46c0.21-0.21,0.21-0.56,0-0.78l-4.05-4.05c-0.21-0.21-0.56-0.21-0.78,0   c-0.3,0.3-0.46,0.7-0.46,1.12c0,0.15,0.02,0.29,0.06,0.43L8.88,9.95c-0.53-0.15-1.13-0.02-1.55,0.4c-0.1,0.1-0.16,0.24-0.16,0.39   s0.06,0.28,0.16,0.39l4.05,4.05c0.11,0.11,0.25,0.16,0.39,0.16c0.14,0,0.28-0.05,0.39-0.16c0.3-0.3,0.46-0.7,0.46-1.12   c0-0.15-0.02-0.29-0.06-0.43l1.86-1.86l4.73,4.73c0.01,0.01,0.01,0.03,0.01,0.04s0,0.02-0.02,0.04c-0.12,0.12-0.18,0.27-0.18,0.43   s0.06,0.32,0.18,0.43l0.43,0.43c0.26,0.26,0.6,0.39,0.94,0.39s0.68-0.13,0.94-0.39l0.86-0.86c0.25-0.25,0.39-0.59,0.39-0.94   C22.72,15.71,22.59,15.38,22.33,15.13z M15.2,3.29l4.03,4.03c-0.19,0.19-0.44,0.29-0.71,0.29c-0.27,0-0.53-0.11-0.72-0.3   l-2.59-2.59c-0.19-0.19-0.3-0.45-0.3-0.72C14.91,3.73,15.02,3.48,15.2,3.29z M14.66,4.97l2.89,2.89l-1.91,1.91l-1.41,1.41   l-1.91,1.91L9.43,10.2L14.66,4.97z M11.78,14.77l-4.03-4.03c0.19-0.19,0.44-0.29,0.71-0.29c0.27,0,0.53,0.11,0.72,0.3l2.59,2.59   c0.19,0.19,0.3,0.45,0.3,0.72C12.07,14.33,11.97,14.58,11.78,14.77z M21.94,16.61l-0.86,0.86c-0.3,0.3-0.79,0.3-1.09,0l-0.43-0.43   c-0.02-0.02-0.02-0.05,0-0.07c0.12-0.12,0.18-0.27,0.18-0.43s-0.06-0.32-0.18-0.43l-4.73-4.73l1.01-1.01l4.73,4.73   c0.24,0.24,0.63,0.24,0.87,0c0.02-0.02,0.05-0.02,0.07,0l0.43,0.43c0.15,0.15,0.23,0.34,0.23,0.54   C22.16,16.28,22.08,16.47,21.94,16.61z"></path>		<path d="M13.13,18.73v-0.66c0-0.73-0.6-1.33-1.33-1.33H3.93c-0.73,0-1.33,0.6-1.33,1.33v0.66c-0.73,0-1.33,0.6-1.33,1.33V21   c0,0.16,0.13,0.28,0.28,0.28h12.62c0.16,0,0.28-0.13,0.28-0.28v-0.94C14.45,19.32,13.86,18.73,13.13,18.73z M3.17,18.06   c0-0.42,0.34-0.77,0.77-0.77h7.86c0.42,0,0.77,0.34,0.77,0.77v0.66h-9.4V18.06z M13.89,20.72H1.84v-0.66   c0-0.42,0.34-0.77,0.77-0.77h0.28h9.96h0.28c0.42,0,0.77,0.34,0.77,0.77V20.72z"></path>		<path d="M5.54,13.31c0.16,0,0.28-0.13,0.28-0.28v-1c0-0.16-0.13-0.28-0.28-0.28s-0.28,0.13-0.28,0.28v1   C5.26,13.19,5.39,13.31,5.54,13.31z"></path>		<path d="M2.55,15.31h1c0.16,0,0.28-0.13,0.28-0.28s-0.13-0.28-0.28-0.28h-1c-0.16,0-0.28,0.13-0.28,0.28S2.4,15.31,2.55,15.31z"></path>		<path d="M3.93,13.81c0.05,0.05,0.13,0.08,0.2,0.08s0.14-0.03,0.2-0.08c0.11-0.11,0.11-0.29,0-0.4l-0.7-0.7   c-0.11-0.11-0.29-0.11-0.4,0c-0.11,0.11-0.11,0.29,0,0.4L3.93,13.81z"></path>	</g>	<rect class="st0" width="24" height="24"></rect></g><g id="Legal_Website_01"></g><g id="Constitution_01"></g></svg>