<?xml version="1.0" encoding="utf-8"?>
<!-- Generator: Adobe Illustrator 24.1.0, SVG Export Plug-In . SVG Version: 6.00 Build 0)  -->
<svg version="1.1" xmlns="http://www.w3.org/2000/svg" xmlns:xlink="http://www.w3.org/1999/xlink" x="0px" y="0px"
	 viewBox="0 0 24 24" style="enable-background:new 0 0 24 24;" xml:space="preserve">
<style type="text/css">
	.st0{fill:none;}
</style>
<g id="Legal_Website_02">
</g>
<g id="Briefcase_03">
</g>
<g id="Legal_Agreement">
</g>
<g id="Evidence">
</g>
<g id="Time_is_Money">
</g>
<g id="Legal_Books">
</g>
<g id="Gun">
</g>
<g id="Prison">
</g>
<g id="Lawyer_03">
</g>
<g id="Policeman">
</g>
<g id="Jury">
	<g>
		<path d="M4.83,20.82h3.91c0.16,0,0.28-0.13,0.28-0.28v-5.87c0-0.16-0.13-0.28-0.28-0.28H4.83c-0.16,0-0.28,0.13-0.28,0.28v5.87
			C4.55,20.7,4.67,20.82,4.83,20.82z M5.11,14.96h3.35v5.31H5.11V14.96z"/>
		<path d="M10.04,20.82h3.91c0.16,0,0.28-0.13,0.28-0.28v-5.87c0-0.16-0.13-0.28-0.28-0.28h-3.91c-0.16,0-0.28,0.13-0.28,0.28v5.87
			C9.76,20.7,9.89,20.82,10.04,20.82z M10.32,14.96h3.35v5.31h-3.35V14.96z"/>
		<path d="M15.26,20.82h3.91c0.16,0,0.28-0.13,0.28-0.28v-5.87c0-0.16-0.13-0.28-0.28-0.28h-3.91c-0.16,0-0.28,0.13-0.28,0.28v5.87
			C14.98,20.7,15.11,20.82,15.26,20.82z M15.54,14.96h3.35v5.31h-3.35V14.96z"/>
		<path d="M21.78,10.48h-0.41c0.05-0.11,0.08-0.24,0.08-0.36V8.25c0-1.11-0.9-2.01-2.01-2.01h-3.13c-0.52,0-1,0.2-1.37,0.54
			c-0.36-0.34-0.84-0.54-1.37-0.54h-3.13c-0.5,0-0.97,0.19-1.34,0.52C8.73,6.4,8.24,6.18,7.69,6.18H4.57c-1.11,0-2.01,0.9-2.01,2.01
			v1.86c0,0.15,0.04,0.29,0.11,0.42H2.22c-0.16,0-0.28,0.13-0.28,0.28v1.96c0,0.16,0.13,0.28,0.28,0.28h1.02v8.36
			c0,0.78,0.64,1.42,1.42,1.42h14.67c0.78,0,1.42-0.64,1.42-1.42V13h1.02c0.16,0,0.28-0.13,0.28-0.28v-1.96
			C22.06,10.61,21.94,10.48,21.78,10.48z M19.43,6.8c0.8,0,1.45,0.65,1.45,1.45v1.86c0,0.2-0.16,0.36-0.36,0.36H15.5
			c0.05-0.11,0.07-0.23,0.07-0.36V8.25c0-0.38-0.11-0.73-0.29-1.03c0.27-0.27,0.63-0.42,1.02-0.42H19.43z M13.56,6.8
			c0.8,0,1.45,0.65,1.45,1.45v1.86c0,0.2-0.16,0.36-0.36,0.36H14.6h-5c0.06-0.13,0.1-0.27,0.1-0.42V8.2c0-0.36-0.1-0.7-0.27-1
			c0.27-0.25,0.62-0.4,1-0.4H13.56z M3.12,8.2c0-0.8,0.65-1.45,1.45-1.45h3.13c0.8,0,1.45,0.65,1.45,1.45v1.86
			c0,0.2-0.16,0.36-0.36,0.36H3.48c-0.2,0-0.36-0.16-0.36-0.36V8.2z M20.2,21.36c0,0.47-0.39,0.86-0.86,0.86H4.66
			c-0.47,0-0.86-0.39-0.86-0.86V13H20.2V21.36z M21.5,12.44h-1.02H3.52H2.5v-1.39h19V12.44z"/>
		<path d="M6.13,5.55c1.19,0,2.16-0.97,2.16-2.16S7.32,1.22,6.13,1.22S3.97,2.19,3.97,3.38S4.94,5.55,6.13,5.55z M6.13,1.78
			c0.88,0,1.6,0.72,1.6,1.6s-0.72,1.6-1.6,1.6s-1.6-0.72-1.6-1.6S5.25,1.78,6.13,1.78z"/>
		<path d="M12,5.6c1.19,0,2.16-0.97,2.16-2.16c0-1.19-0.97-2.16-2.16-2.16c-1.19,0-2.16,0.97-2.16,2.16C9.84,4.63,10.81,5.6,12,5.6z
			 M12,1.84c0.88,0,1.6,0.72,1.6,1.6c0,0.88-0.72,1.6-1.6,1.6c-0.88,0-1.6-0.72-1.6-1.6C10.4,2.56,11.12,1.84,12,1.84z"/>
		<path d="M17.87,5.6c1.19,0,2.16-0.97,2.16-2.16c0-1.19-0.97-2.16-2.16-2.16c-1.19,0-2.16,0.97-2.16,2.16
			C15.7,4.63,16.68,5.6,17.87,5.6z M17.87,1.84c0.88,0,1.6,0.72,1.6,1.6c0,0.88-0.72,1.6-1.6,1.6c-0.88,0-1.6-0.72-1.6-1.6
			C16.27,2.56,16.99,1.84,17.87,1.84z"/>
	</g>
	<rect class="st0" width="24" height="24"/>
</g>
<g id="Policeman_Hat">
</g>
<g id="Investigation">
</g>
<g id="Policeman_Equipment">
</g>
<g id="Sheriff_Badge">
</g>
<g id="Briefcase_02">
</g>
<g id="Lawyer_02">
</g>
<g id="Criminal">
</g>
<g id="Judge_02">
</g>
<g id="Legal_Document_02">
</g>
<g id="Agreement_03">
</g>
<g id="Fingerprint">
</g>
<g id="Lawyer_01">
</g>
<g id="Handcuff">
</g>
<g id="Department_of_Family_Services">
</g>
<g id="Constitution_02">
</g>
<g id="Judge_01">
</g>
<g id="Briefcase_01">
</g>
<g id="Courthouse_02">
</g>
<g id="Testimony">
</g>
<g id="Agreement_02">
</g>
<g id="Law_Enforcement">
</g>
<g id="Veredict_02">
</g>
<g id="Agreement_01">
</g>
<g id="Justice_Concept">
</g>
<g id="Veredict_01">
</g>
<g id="ID">
</g>
<g id="Individual">
</g>
<g id="Police_Manual">
</g>
<g id="Courthouse_01">
</g>
<g id="Justice">
</g>
<g id="Legal_Document_01">
</g>
<g id="Security_Badge">
</g>
<g id="Policeman_Badge">
</g>
<g id="Scale_of_Justice">
</g>
<g id="Legal_Study">
</g>
<g id="Jail">
</g>
<g id="Gavel">
</g>
<g id="Legal_Website_01">
</g>
<g id="Constitution_01">
</g>
</svg>
