<?xml version="1.0" encoding="utf-8"?>
<!-- Generator: Adobe Illustrator 24.1.0, SVG Export Plug-In . SVG Version: 6.00 Build 0)  -->
<svg version="1.1" xmlns="http://www.w3.org/2000/svg" xmlns:xlink="http://www.w3.org/1999/xlink" x="0px" y="0px"
	 viewBox="0 0 24 24" style="enable-background:new 0 0 24 24;" xml:space="preserve">
<style type="text/css">
	.st0{fill:none;}
</style>
<g id="Legal_Website_02">
</g>
<g id="Briefcase_03">
</g>
<g id="Legal_Agreement">
</g>
<g id="Evidence">
</g>
<g id="Time_is_Money">
</g>
<g id="Legal_Books">
</g>
<g id="Gun">
</g>
<g id="Prison">
</g>
<g id="Lawyer_03">
</g>
<g id="Policeman">
</g>
<g id="Jury">
</g>
<g id="Policeman_Hat">
</g>
<g id="Investigation">
</g>
<g id="Policeman_Equipment">
</g>
<g id="Sheriff_Badge">
</g>
<g id="Briefcase_02">
</g>
<g id="Lawyer_02">
</g>
<g id="Criminal">
</g>
<g id="Judge_02">
</g>
<g id="Legal_Document_02">
</g>
<g id="Agreement_03">
</g>
<g id="Fingerprint">
</g>
<g id="Lawyer_01">
	<g>
		<path d="M14.55,5.62c1.23,0,2.23-1,2.23-2.23s-1-2.23-2.23-2.23c-1.23,0-2.23,1-2.23,2.23S13.32,5.62,14.55,5.62z M14.55,1.72
			c0.92,0,1.67,0.75,1.67,1.67s-0.75,1.67-1.67,1.67c-0.92,0-1.67-0.75-1.67-1.67S13.63,1.72,14.55,1.72z"/>
		<path d="M19.48,13.61h-0.71c-0.05-0.22-0.16-0.43-0.31-0.59v-2.76V8.86V8.27c0-1.02-0.89-1.84-1.99-1.84l-3.59,0
			c-0.89,0-1.64,0.54-1.89,1.28c-0.29-0.17-0.55-0.36-0.79-0.58l-0.33-0.3c-0.33-0.29-0.82-0.29-1.14,0L8.38,7.14
			C7.37,8.03,5.96,8.54,4.52,8.54c-0.16,0-0.28,0.13-0.28,0.28v6.05c0,0.99,0.53,1.91,1.38,2.4l2.96,1.72
			c0.22,0.13,0.46,0.19,0.7,0.19s0.49-0.06,0.7-0.19l2.31-1.34v4.11c0,0.6,0.6,1.09,1.33,1.09c0.43,0,0.81-0.17,1.05-0.42
			c0.24,0.26,0.62,0.42,1.05,0.42c0.73,0,1.33-0.49,1.33-1.09l0-4.7h2.42c0.16,0,0.28-0.13,0.28-0.28v-2.89
			C19.76,13.74,19.64,13.61,19.48,13.61z M17.53,13.18c0.29,0,0.55,0.18,0.66,0.43h-1.31C16.99,13.36,17.24,13.18,17.53,13.18z
			 M12.3,15.62c-0.11,0.12-0.23,0.22-0.37,0.3l-2.34,1.36c-0.19,0.11-0.42,0.11-0.61,0l-2.34-1.36c-0.52-0.3-0.84-0.86-0.84-1.47
			V9.94c1.17-0.06,2.29-0.5,3.11-1.22l0.28-0.24c0.07-0.06,0.17-0.06,0.24,0l0.26,0.23c0.36,0.32,0.77,0.58,1.23,0.78v0.77v3.81
			c0,0.6,0.44,1.09,0.98,1.09c0.15,0,0.29-0.04,0.42-0.11V15.62z M9.71,18.51c-0.26,0.15-0.58,0.15-0.84,0L5.9,16.79
			c-0.68-0.4-1.1-1.13-1.1-1.92V9.09c1.48-0.06,2.91-0.61,3.95-1.53L9.1,7.26c0.11-0.1,0.29-0.1,0.4,0l0.33,0.3
			c0.32,0.29,0.68,0.54,1.07,0.75v0.55v0.02c-0.31-0.16-0.6-0.35-0.85-0.58L9.79,8.06c-0.28-0.25-0.7-0.25-0.98,0L8.53,8.3
			C7.74,8.99,6.64,9.39,5.51,9.39c-0.16,0-0.28,0.13-0.28,0.28v4.79c0,0.8,0.43,1.55,1.12,1.95l2.34,1.36
			c0.18,0.1,0.38,0.16,0.59,0.16c0.2,0,0.41-0.05,0.59-0.16l2.34-1.36c0.03-0.02,0.06-0.04,0.09-0.06V17L9.71,18.51z M16.5,21.76
			c0,0.28-0.35,0.52-0.77,0.52c-0.42,0-0.77-0.24-0.77-0.52v-6.77c0-0.16-0.13-0.28-0.28-0.28s-0.28,0.13-0.28,0.28v6.77
			c0,0.28-0.35,0.52-0.77,0.52s-0.77-0.24-0.77-0.52v-7.69v-0.63V8.62c0-0.16-0.13-0.28-0.28-0.28S12.3,8.46,12.3,8.62v4.83v0.63
			c0,0.29-0.19,0.52-0.42,0.52c-0.23,0-0.42-0.24-0.42-0.52v-3.81V8.86V8.27c0,0,0,0,0,0c0.03-0.06,0.03-0.13,0.02-0.19
			c0.1-0.62,0.69-1.09,1.41-1.09l3.59,0c0.79,0,1.43,0.57,1.43,1.28v0.58v1.41v2.41c-0.12-0.04-0.24-0.05-0.37-0.05
			c-0.17,0-0.32,0.03-0.47,0.09V8.62c0-0.16-0.13-0.28-0.28-0.28S16.5,8.46,16.5,8.62v4.53c-0.1,0.14-0.17,0.3-0.21,0.47h-0.71
			c-0.16,0-0.28,0.13-0.28,0.28v2.89c0,0.16,0.13,0.28,0.28,0.28h0.92L16.5,21.76z M19.2,16.5h-3.34v-2.33h3.34V16.5z"/>
	</g>
	<rect class="st0" width="24" height="24"/>
</g>
<g id="Handcuff">
</g>
<g id="Department_of_Family_Services">
</g>
<g id="Constitution_02">
</g>
<g id="Judge_01">
</g>
<g id="Briefcase_01">
</g>
<g id="Courthouse_02">
</g>
<g id="Testimony">
</g>
<g id="Agreement_02">
</g>
<g id="Law_Enforcement">
</g>
<g id="Veredict_02">
</g>
<g id="Agreement_01">
</g>
<g id="Justice_Concept">
</g>
<g id="Veredict_01">
</g>
<g id="ID">
</g>
<g id="Individual">
</g>
<g id="Police_Manual">
</g>
<g id="Courthouse_01">
</g>
<g id="Justice">
</g>
<g id="Legal_Document_01">
</g>
<g id="Security_Badge">
</g>
<g id="Policeman_Badge">
</g>
<g id="Scale_of_Justice">
</g>
<g id="Legal_Study">
</g>
<g id="Jail">
</g>
<g id="Gavel">
</g>
<g id="Legal_Website_01">
</g>
<g id="Constitution_01">
</g>
</svg>
