<?xml version="1.0" encoding="utf-8"?>
<!-- Generator: Adobe Illustrator 24.1.0, SVG Export Plug-In . SVG Version: 6.00 Build 0)  -->
<svg version="1.1" xmlns="http://www.w3.org/2000/svg" xmlns:xlink="http://www.w3.org/1999/xlink" x="0px" y="0px"
	 viewBox="0 0 24 24" style="enable-background:new 0 0 24 24;" xml:space="preserve">
<style type="text/css">
	.st0{fill:none;}
</style>
<g id="Legal_Website_02">
</g>
<g id="Briefcase_03">
</g>
<g id="Legal_Agreement">
</g>
<g id="Evidence">
</g>
<g id="Time_is_Money">
</g>
<g id="Legal_Books">
</g>
<g id="Gun">
</g>
<g id="Prison">
</g>
<g id="Lawyer_03">
	<g>
		<path d="M17.98,12.57c-0.07-0.01-0.14-0.01-0.21-0.01H6.97c-1.41,0-2.55,1.15-2.55,2.55v7.37c0,0.16,0.13,0.28,0.28,0.28
			s0.28-0.13,0.28-0.28v-7.37c0-1.1,0.89-1.99,1.99-1.99h3.21l1.85,3.77v5.6c0,0.16,0.13,0.28,0.28,0.28s0.28-0.13,0.28-0.28v-5.6
			l1.86-3.77h3.31c0.06,0,0.11,0,0.16,0.01c0.96,0.08,1.71,0.93,1.71,1.94v7.42c0,0.16,0.13,0.28,0.28,0.28s0.28-0.13,0.28-0.28
			v-7.42C20.2,13.77,19.23,12.67,17.98,12.57z M12.31,16.19l-1.51-3.07h3.02L12.31,16.19z"/>
		<path d="M8.07,16.26c-0.16,0-0.28,0.13-0.28,0.28v5.95c0,0.16,0.13,0.28,0.28,0.28s0.28-0.13,0.28-0.28v-5.95
			C8.35,16.38,8.23,16.26,8.07,16.26z"/>
		<path d="M16.5,16c-0.16,0-0.28,0.13-0.28,0.28v6.22c0,0.16,0.13,0.28,0.28,0.28s0.28-0.13,0.28-0.28v-6.22
			C16.78,16.13,16.66,16,16.5,16z"/>
		<circle cx="13.95" cy="18.03" r="0.6"/>
		<path d="M13.95,19.83c-0.33,0-0.6,0.27-0.6,0.6c0,0.33,0.27,0.6,0.6,0.6s0.6-0.27,0.6-0.6C14.55,20.1,14.28,19.83,13.95,19.83z"/>
		<path d="M22.26,7.05l-0.43-0.47c-0.04-0.04-0.06-0.1-0.06-0.16V2.74c0-0.84-0.68-1.52-1.52-1.52h-5.11
			c-0.81,0-1.48,0.64-1.52,1.44c-0.39-0.11-0.8-0.17-1.23-0.17c-0.71,0-1.39,0.17-1.99,0.46V2.74c0-0.84-0.68-1.52-1.52-1.52H3.76
			c-0.84,0-1.52,0.68-1.52,1.52v3.68c0,0.06-0.02,0.12-0.06,0.16L1.74,7.05c-0.18,0.19-0.22,0.46-0.12,0.7
			C1.73,8,1.95,8.14,2.22,8.14h2.55v0.74c0,0.84,0.68,1.52,1.52,1.52h3.06c0.81,0.72,1.87,1.17,3.04,1.17
			c1.17,0,2.23-0.44,3.04-1.17h2.29c0.84,0,1.52-0.68,1.52-1.52V8.14h2.55c0.26,0,0.49-0.15,0.6-0.39
			C22.49,7.52,22.44,7.25,22.26,7.05z M14.44,3.63l-1.39,0.93c-0.71,0.47-1.53,0.76-2.37,0.83L8.69,5.55
			c0.59-1.46,2.02-2.5,3.69-2.5C13.14,3.05,13.84,3.27,14.44,3.63z M16.1,5.6c-0.89,0.03-1.77-0.22-2.52-0.72l1.36-0.9
			C15.45,4.41,15.85,4.97,16.1,5.6z M2.14,7.53C2.12,7.5,2.12,7.47,2.15,7.43l0.43-0.47c0.13-0.15,0.21-0.34,0.21-0.54V2.74
			c0-0.53,0.43-0.96,0.96-0.96h5.11c0.53,0,0.96,0.43,0.96,0.96v0.54C8.97,3.87,8.32,4.75,8.02,5.78c0,0.01,0,0.01-0.01,0.02
			C7.9,6.19,7.84,6.6,7.84,7.03c0,0.19,0.01,0.37,0.03,0.55H2.22C2.17,7.58,2.15,7.55,2.14,7.53z M5.32,8.89V8.14h2.65
			c0.16,0.63,0.45,1.21,0.84,1.7H6.29C5.76,9.85,5.32,9.42,5.32,8.89z M8.4,7.03c0-0.31,0.04-0.61,0.11-0.9l2.22-0.18
			c0.82-0.07,1.62-0.32,2.33-0.73l0.03,0.02c0.83,0.61,1.84,0.93,2.87,0.93c0.09,0,0.18,0,0.27-0.01l0.03,0
			c0.06,0.28,0.1,0.57,0.1,0.87c0,2.2-1.79,3.98-3.98,3.98S8.4,9.23,8.4,7.03z M18.68,8.89c0,0.53-0.43,0.96-0.96,0.96h-1.77
			c0.39-0.5,0.68-1.07,0.84-1.7h1.88V8.89z M21.86,7.53c-0.01,0.02-0.03,0.05-0.08,0.05h-4.89c0.02-0.18,0.03-0.36,0.03-0.55
			c0-0.42-0.06-0.84-0.17-1.23c0-0.01,0-0.02-0.01-0.03c-0.38-1.32-1.34-2.39-2.58-2.92V2.74c0-0.53,0.43-0.96,0.96-0.96h5.11
			c0.53,0,0.96,0.43,0.96,0.96v3.68c0,0.2,0.07,0.39,0.21,0.54l0.43,0.47C21.88,7.47,21.88,7.5,21.86,7.53z"/>
	</g>
	<rect class="st0" width="24" height="24"/>
</g>
<g id="Policeman">
</g>
<g id="Jury">
</g>
<g id="Policeman_Hat">
</g>
<g id="Investigation">
</g>
<g id="Policeman_Equipment">
</g>
<g id="Sheriff_Badge">
</g>
<g id="Briefcase_02">
</g>
<g id="Lawyer_02">
</g>
<g id="Criminal">
</g>
<g id="Judge_02">
</g>
<g id="Legal_Document_02">
</g>
<g id="Agreement_03">
</g>
<g id="Fingerprint">
</g>
<g id="Lawyer_01">
</g>
<g id="Handcuff">
</g>
<g id="Department_of_Family_Services">
</g>
<g id="Constitution_02">
</g>
<g id="Judge_01">
</g>
<g id="Briefcase_01">
</g>
<g id="Courthouse_02">
</g>
<g id="Testimony">
</g>
<g id="Agreement_02">
</g>
<g id="Law_Enforcement">
</g>
<g id="Veredict_02">
</g>
<g id="Agreement_01">
</g>
<g id="Justice_Concept">
</g>
<g id="Veredict_01">
</g>
<g id="ID">
</g>
<g id="Individual">
</g>
<g id="Police_Manual">
</g>
<g id="Courthouse_01">
</g>
<g id="Justice">
</g>
<g id="Legal_Document_01">
</g>
<g id="Security_Badge">
</g>
<g id="Policeman_Badge">
</g>
<g id="Scale_of_Justice">
</g>
<g id="Legal_Study">
</g>
<g id="Jail">
</g>
<g id="Gavel">
</g>
<g id="Legal_Website_01">
</g>
<g id="Constitution_01">
</g>
</svg>
