<?xml version="1.0" encoding="utf-8"?>
<!-- Generator: Adobe Illustrator 24.1.0, SVG Export Plug-In . SVG Version: 6.00 Build 0)  -->
<svg version="1.1" xmlns="http://www.w3.org/2000/svg" xmlns:xlink="http://www.w3.org/1999/xlink" x="0px" y="0px"
	 viewBox="0 0 24 24" style="enable-background:new 0 0 24 24;" xml:space="preserve">
<style type="text/css">
	.st0{fill:none;}
</style>
<g id="Legal_Website_02">
</g>
<g id="Briefcase_03">
</g>
<g id="Legal_Agreement">
</g>
<g id="Evidence">
</g>
<g id="Time_is_Money">
</g>
<g id="Legal_Books">
</g>
<g id="Gun">
</g>
<g id="Prison">
</g>
<g id="Lawyer_03">
</g>
<g id="Policeman">
</g>
<g id="Jury">
</g>
<g id="Policeman_Hat">
</g>
<g id="Investigation">
</g>
<g id="Policeman_Equipment">
</g>
<g id="Sheriff_Badge">
</g>
<g id="Briefcase_02">
</g>
<g id="Lawyer_02">
</g>
<g id="Criminal">
</g>
<g id="Judge_02">
</g>
<g id="Legal_Document_02">
</g>
<g id="Agreement_03">
</g>
<g id="Fingerprint">
</g>
<g id="Lawyer_01">
</g>
<g id="Handcuff">
</g>
<g id="Department_of_Family_Services">
</g>
<g id="Constitution_02">
</g>
<g id="Judge_01">
</g>
<g id="Briefcase_01">
</g>
<g id="Courthouse_02">
</g>
<g id="Testimony">
</g>
<g id="Agreement_02">
</g>
<g id="Law_Enforcement">
</g>
<g id="Veredict_02">
</g>
<g id="Agreement_01">
</g>
<g id="Justice_Concept">
</g>
<g id="Veredict_01">
</g>
<g id="ID">
</g>
<g id="Individual">
</g>
<g id="Police_Manual">
</g>
<g id="Courthouse_01">
</g>
<g id="Justice">
</g>
<g id="Legal_Document_01">
	<g>
		<path d="M20.45,2.91C20.45,2.91,20.45,2.91,20.45,2.91l-13.62,0c-1.47,0-2.67,1.2-2.67,2.67v11.27H1.5
			c-0.16,0-0.28,0.13-0.28,0.28v1.61c0,1.29,1.05,2.34,2.34,2.34h0.88h11.88h0.18c0.03,0,0.06-0.01,0.09-0.02
			c1.16-0.14,2.07-1.13,2.07-2.32v-1.29v-0.32V7.14h3.84c0.16,0,0.28-0.13,0.28-0.28V5.25C22.78,3.96,21.74,2.92,20.45,2.91z
			 M4.44,20.53H3.56c-0.98,0-1.78-0.8-1.78-1.78v-1.33h12.2v1.33c0,0.71,0.32,1.35,0.82,1.78H4.44z M18.1,18.75
			c0,0.98-0.8,1.78-1.78,1.78s-1.78-0.8-1.78-1.78v-1.61c0-0.16-0.13-0.28-0.28-0.28H4.72V5.58c0-1.16,0.95-2.11,2.11-2.11h12.09
			c-0.5,0.43-0.82,1.07-0.82,1.78v1.33v0.28v10.27v0.32V18.75z M22.22,6.58h-3.56V5.25c0-0.98,0.8-1.78,1.78-1.78
			c0.98,0,1.78,0.8,1.78,1.78V6.58z"/>
		<path d="M14.66,6.58H8.06c-0.16,0-0.28,0.13-0.28,0.28S7.9,7.14,8.06,7.14h6.61c0.16,0,0.28-0.13,0.28-0.28S14.82,6.58,14.66,6.58
			z"/>
		<path d="M14.66,8.78H8.06c-0.16,0-0.28,0.13-0.28,0.28S7.9,9.35,8.06,9.35h6.61c0.16,0,0.28-0.13,0.28-0.28S14.82,8.78,14.66,8.78
			z"/>
		<path d="M14.66,10.98H8.06c-0.16,0-0.28,0.13-0.28,0.28s0.13,0.28,0.28,0.28h6.61c0.16,0,0.28-0.13,0.28-0.28
			S14.82,10.98,14.66,10.98z"/>
		<path d="M14.66,13.19H8.06c-0.16,0-0.28,0.13-0.28,0.28s0.13,0.28,0.28,0.28h6.61c0.16,0,0.28-0.13,0.28-0.28
			S14.82,13.19,14.66,13.19z"/>
	</g>
	<rect class="st0" width="24" height="24"/>
</g>
<g id="Security_Badge">
</g>
<g id="Policeman_Badge">
</g>
<g id="Scale_of_Justice">
</g>
<g id="Legal_Study">
</g>
<g id="Jail">
</g>
<g id="Gavel">
</g>
<g id="Legal_Website_01">
</g>
<g id="Constitution_01">
</g>
</svg>
