<?xml version="1.0" encoding="utf-8"?>
<!-- Generator: Adobe Illustrator 24.1.0, SVG Export Plug-In . SVG Version: 6.00 Build 0)  -->
<svg version="1.1" xmlns="http://www.w3.org/2000/svg" xmlns:xlink="http://www.w3.org/1999/xlink" x="0px" y="0px"
	 viewBox="0 0 24 24" style="enable-background:new 0 0 24 24;" xml:space="preserve">
<style type="text/css">
	.st0{fill:none;}
</style>
<g id="Legal_Website_02">
</g>
<g id="Briefcase_03">
</g>
<g id="Legal_Agreement">
</g>
<g id="Evidence">
</g>
<g id="Time_is_Money">
</g>
<g id="Legal_Books">
	<path d="M21.54,6.97c-0.02,0-0.05,0-0.07,0.01v-1.9c0-0.68-0.56-1.24-1.24-1.24H7.87c0,0,0,0-0.01,0c0,0-0.01,0-0.01,0
		c-0.02,0-0.05,0.01-0.07,0.01C7.76,3.86,7.74,3.87,7.72,3.88c0,0-0.01,0-0.01,0.01C7.69,3.9,7.67,3.91,7.66,3.92L1.3,10.28
		c-0.08,0.08-0.1,0.2-0.06,0.31c0.04,0.11,0.15,0.17,0.26,0.17H2v2.57H1.5c-0.16,0-0.28,0.13-0.28,0.28s0.13,0.28,0.28,0.28h1.31
		c0,0,0,0,0,0h0.5v2.57h-0.5c0,0,0,0-0.01,0H2.1c-0.16,0-0.28,0.13-0.28,0.28s0.13,0.28,0.28,0.28h0.5v2.57H2.1
		c-0.16,0-0.28,0.13-0.28,0.28s0.13,0.28,0.28,0.28h13.32c0.04,0,0.07-0.01,0.1-0.02c0,0,0,0,0.01,0c0.03-0.01,0.06-0.03,0.09-0.06
		c0,0,0,0,0,0l5.88-5.83c0.36-0.36,0.57-0.86,0.57-1.37v-1.53c0-0.03,0-0.06,0-0.09l0.15-0.15c0.36-0.36,0.57-0.86,0.57-1.37V8.21
		C22.78,7.53,22.22,6.97,21.54,6.97z M7.98,4.4h12.26c0.37,0,0.68,0.3,0.68,0.68v2.1l-5.81,5.76v-1.5c0-0.68-0.56-1.24-1.24-1.24
		H2.18L7.98,4.4z M2.56,10.76h11.3c0.37,0,0.68,0.3,0.68,0.68v1.89H2.56V10.76z M3.87,13.89h11.3c0.37,0,0.68,0.3,0.68,0.68v1.89
		H3.87V13.89z M3.16,17.03h11.3c0.37,0,0.68,0.3,0.68,0.68v1.89H3.16V17.03z M21.5,12.88c0,0.36-0.15,0.72-0.4,0.97l-5.4,5.36v-1.5
		c0-0.25-0.08-0.48-0.2-0.68h0.64c0.04,0,0.07-0.01,0.1-0.02c0,0,0,0,0.01,0c0.03-0.01,0.06-0.03,0.09-0.06c0,0,0,0,0,0l5.17-5.13
		V12.88z M22.22,9.74c0,0.36-0.15,0.72-0.4,0.97l-0.23,0.23c-0.01,0.01-0.02,0.02-0.02,0.02l-5.14,5.1v-1.5
		c0-0.58-0.4-1.07-0.95-1.2l5.92-5.87c0,0,0,0,0,0c0.04,0.03,0.09,0.04,0.15,0.04c0.37,0,0.68,0.3,0.68,0.68V9.74z"/>
	<rect class="st0" width="24" height="24"/>
</g>
<g id="Gun">
</g>
<g id="Prison">
</g>
<g id="Lawyer_03">
</g>
<g id="Policeman">
</g>
<g id="Jury">
</g>
<g id="Policeman_Hat">
</g>
<g id="Investigation">
</g>
<g id="Policeman_Equipment">
</g>
<g id="Sheriff_Badge">
</g>
<g id="Briefcase_02">
</g>
<g id="Lawyer_02">
</g>
<g id="Criminal">
</g>
<g id="Judge_02">
</g>
<g id="Legal_Document_02">
</g>
<g id="Agreement_03">
</g>
<g id="Fingerprint">
</g>
<g id="Lawyer_01">
</g>
<g id="Handcuff">
</g>
<g id="Department_of_Family_Services">
</g>
<g id="Constitution_02">
</g>
<g id="Judge_01">
</g>
<g id="Briefcase_01">
</g>
<g id="Courthouse_02">
</g>
<g id="Testimony">
</g>
<g id="Agreement_02">
</g>
<g id="Law_Enforcement">
</g>
<g id="Veredict_02">
</g>
<g id="Agreement_01">
</g>
<g id="Justice_Concept">
</g>
<g id="Veredict_01">
</g>
<g id="ID">
</g>
<g id="Individual">
</g>
<g id="Police_Manual">
</g>
<g id="Courthouse_01">
</g>
<g id="Justice">
</g>
<g id="Legal_Document_01">
</g>
<g id="Security_Badge">
</g>
<g id="Policeman_Badge">
</g>
<g id="Scale_of_Justice">
</g>
<g id="Legal_Study">
</g>
<g id="Jail">
</g>
<g id="Gavel">
</g>
<g id="Legal_Website_01">
</g>
<g id="Constitution_01">
</g>
</svg>
