<?xml version="1.0" encoding="utf-8"?>
<!-- Generator: Adobe Illustrator 24.1.0, SVG Export Plug-In . SVG Version: 6.00 Build 0)  -->
<svg version="1.1" xmlns="http://www.w3.org/2000/svg" xmlns:xlink="http://www.w3.org/1999/xlink" x="0px" y="0px"
	 viewBox="0 0 24 24" style="enable-background:new 0 0 24 24;" xml:space="preserve">
<style type="text/css">
	.st0{fill:none;}
</style>
<g id="Legal_Website_02">
</g>
<g id="Briefcase_03">
</g>
<g id="Legal_Agreement">
</g>
<g id="Evidence">
</g>
<g id="Time_is_Money">
</g>
<g id="Legal_Books">
</g>
<g id="Gun">
</g>
<g id="Prison">
</g>
<g id="Lawyer_03">
</g>
<g id="Policeman">
</g>
<g id="Jury">
</g>
<g id="Policeman_Hat">
</g>
<g id="Investigation">
</g>
<g id="Policeman_Equipment">
</g>
<g id="Sheriff_Badge">
</g>
<g id="Briefcase_02">
</g>
<g id="Lawyer_02">
</g>
<g id="Criminal">
</g>
<g id="Judge_02">
</g>
<g id="Legal_Document_02">
</g>
<g id="Agreement_03">
</g>
<g id="Fingerprint">
</g>
<g id="Lawyer_01">
</g>
<g id="Handcuff">
</g>
<g id="Department_of_Family_Services">
</g>
<g id="Constitution_02">
</g>
<g id="Judge_01">
</g>
<g id="Briefcase_01">
</g>
<g id="Courthouse_02">
</g>
<g id="Testimony">
</g>
<g id="Agreement_02">
</g>
<g id="Law_Enforcement">
</g>
<g id="Veredict_02">
</g>
<g id="Agreement_01">
</g>
<g id="Justice_Concept">
</g>
<g id="Veredict_01">
</g>
<g id="ID">
</g>
<g id="Individual">
</g>
<g id="Police_Manual">
</g>
<g id="Courthouse_01">
</g>
<g id="Justice">
</g>
<g id="Legal_Document_01">
</g>
<g id="Security_Badge">
</g>
<g id="Policeman_Badge">
</g>
<g id="Scale_of_Justice">
</g>
<g id="Legal_Study">
</g>
<g id="Jail">
</g>
<g id="Gavel">
</g>
<g id="Legal_Website_01">
	<path d="M22.71,18.34c-0.13-0.26-0.39-0.43-0.69-0.43h-1.14V9.2c0-1.11-0.9-2.01-2.01-2.01h-1.49V3.51c0-0.29-0.24-0.53-0.53-0.53
		c-0.55,0-1.02,0.3-1.28,0.74H8.42C8.17,3.28,7.69,2.98,7.15,2.98c-0.29,0-0.53,0.24-0.53,0.53v3.69H5.23
		c-1.16,0-2.07,0.88-2.07,2.01v8.72H1.99c-0.3,0-0.56,0.16-0.69,0.43c-0.12,0.25-0.09,0.55,0.08,0.77l0.46,0.59
		c0.65,0.83,1.68,1.32,2.76,1.32h14.8c1.08,0,2.11-0.49,2.76-1.32l0.46-0.59C22.8,18.89,22.83,18.6,22.71,18.34z M15.94,4.45
		c0-0.49,0.39-0.89,0.88-0.91v5.19c-0.49-0.02-0.88-0.42-0.88-0.91V4.45z M8.62,4.28h6.76v3.71h-2.46h-1.83H8.62V4.28z M13.22,15.26
		c0.01,0,0.02,0.01,0.02,0.02v0.56c0,0.38-0.31,0.68-0.68,0.68h-1.12c-0.38,0-0.68-0.31-0.68-0.68v-0.56c0-0.01,0.01-0.02,0.02-0.02
		c0.32,0,0.59-0.26,0.59-0.59V8.55h1.27v6.12C12.63,15,12.9,15.26,13.22,15.26z M7.18,3.54c0.49,0.02,0.88,0.42,0.88,0.91v3.37
		c0,0.49-0.39,0.89-0.88,0.91V3.54z M3.73,9.2c0-0.81,0.66-1.44,1.51-1.44h1.39v1.02c0,0.29,0.24,0.53,0.53,0.53
		c0.55,0,1.03-0.3,1.28-0.75h2.38v6.12c0,0.01-0.01,0.02-0.02,0.02c-0.32,0-0.59,0.26-0.59,0.59v0.56c0,0.69,0.56,1.25,1.25,1.25
		h1.12c0.69,0,1.25-0.56,1.25-1.25v-0.56c0-0.32-0.26-0.59-0.59-0.59c-0.01,0-0.02-0.01-0.02-0.02V8.55h2.38
		C15.83,9,16.3,9.3,16.85,9.3c0.29,0,0.53-0.24,0.53-0.53V7.75h1.49c0.8,0,1.44,0.65,1.44,1.44v8.72h-6.66
		c-0.51,0-0.96,0.29-1.17,0.74c-0.08,0.19-0.27,0.3-0.48,0.3c-0.22,0-0.4-0.11-0.48-0.3c-0.2-0.45-0.66-0.74-1.17-0.74H3.73V9.2z
		 M22.18,18.77l-0.46,0.59c-0.54,0.69-1.41,1.11-2.32,1.11H4.6c-0.91,0-1.77-0.41-2.32-1.11l-0.46-0.59
		c-0.06-0.07-0.04-0.14-0.02-0.18c0.01-0.03,0.06-0.11,0.19-0.11h8.36c0.29,0,0.54,0.16,0.65,0.41c0.18,0.39,0.56,0.63,1,0.63
		c0.44,0,0.82-0.24,1-0.63c0.11-0.25,0.37-0.41,0.65-0.41h8.36c0.12,0,0.17,0.08,0.19,0.11C22.22,18.62,22.24,18.69,22.18,18.77z"/>
	<rect class="st0" width="24" height="24"/>
</g>
<g id="Constitution_01">
</g>
</svg>
