<?xml version="1.0" encoding="utf-8"?>
<!-- Generator: Adobe Illustrator 24.1.0, SVG Export Plug-In . SVG Version: 6.00 Build 0)  -->
<svg version="1.1" xmlns="http://www.w3.org/2000/svg" xmlns:xlink="http://www.w3.org/1999/xlink" x="0px" y="0px"
	 viewBox="0 0 24 24" style="enable-background:new 0 0 24 24;" xml:space="preserve">
<style type="text/css">
	.st0{fill:none;}
</style>
<g id="Legal_Website_02">
</g>
<g id="Briefcase_03">
</g>
<g id="Legal_Agreement">
</g>
<g id="Evidence">
</g>
<g id="Time_is_Money">
	<g>
		<path d="M13.6,2.12c-3.52,0-6.66,1.94-8.26,5.06C4.98,7.25,4.62,7.36,4.27,7.5C4.16,7.54,4.09,7.65,4.09,7.76v0.03v1.65v0.03v0
			v1.68c0,0,0,0,0,0.01c0,0,0,0.01,0,0.01v0.96c-0.94-0.09-1.9,0.05-2.78,0.4c-0.11,0.04-0.18,0.15-0.18,0.26v0.03v1.65v0.03v0v1.68
			c0,0,0,0.01,0,0.01c0,0,0,0.01,0,0.01v1.64v0.05v1.56v0.08v1.61c0,0.11,0.07,0.22,0.18,0.26c0.71,0.28,1.46,0.43,2.21,0.43
			c0.47,0,0.94-0.06,1.4-0.17c0.51,0.14,1.04,0.21,1.56,0.21c0.51,0,1.02-0.07,1.51-0.2c0.5,0.13,1.01,0.2,1.52,0.2
			c0.75,0,1.5-0.14,2.21-0.43c0.11-0.04,0.18-0.15,0.18-0.26v-0.71c0.56,0.1,1.13,0.16,1.7,0.16c5.11,0,9.26-4.15,9.26-9.26
			C22.86,6.27,18.71,2.12,13.6,2.12z M7.12,19.59c-0.83,0.1-1.68,0.01-2.47-0.28V18.2c0.59,0.19,1.21,0.29,1.83,0.29
			c0.21,0,0.43-0.02,0.64-0.04l0,1.05h0V19.59z M4.65,9.88c0.6,0.19,1.21,0.29,1.83,0.29c0.62,0,1.23-0.1,1.83-0.29v1.09
			c-1.19,0.43-2.47,0.43-3.66,0V9.88z M8.31,9.29c-1.19,0.43-2.47,0.43-3.66,0V8.24c0.6,0.19,1.21,0.29,1.83,0.29
			c0.62,0,1.23-0.1,1.83-0.29V9.29z M10.43,15.17c0.09-0.01,0.18-0.03,0.27-0.05c0.01,0,0.01,0,0.02,0c0,0,0.01,0,0.01,0
			c0.2-0.04,0.4-0.1,0.6-0.16v1.09c-0.28,0.1-0.56,0.17-0.84,0.23c-0.07,0.01-0.15,0.02-0.23,0.03c-0.08,0.01-0.17,0.02-0.25,0.03
			c-0.06,0.01-0.12,0.01-0.19,0.01c-0.08,0.01-0.17,0.01-0.25,0.01c-0.06,0-0.12,0-0.18,0c-0.09,0-0.18-0.01-0.27-0.01
			c-0.06,0-0.11-0.01-0.17-0.01c-0.09-0.01-0.19-0.02-0.28-0.04c-0.05-0.01-0.1-0.02-0.15-0.02c-0.1-0.02-0.2-0.04-0.3-0.07
			c-0.04-0.01-0.09-0.02-0.13-0.03c-0.14-0.04-0.28-0.08-0.42-0.13v-1.09c0.6,0.19,1.21,0.29,1.83,0.29c0.3,0,0.61-0.02,0.91-0.07
			C10.42,15.18,10.43,15.18,10.43,15.17z M7.12,16.2c-0.83,0.1-1.68,0.01-2.47-0.28v-1.02c0.59,0.19,1.21,0.29,1.83,0.29
			c0.21,0,0.43-0.02,0.64-0.04L7.12,16.2z M4.09,16.12v0.18c-0.81,0.08-1.63-0.01-2.39-0.29v-1.09c0.59,0.19,1.21,0.29,1.83,0.29
			c0.19,0,0.38-0.01,0.56-0.03V16.12z M1.7,16.6c0.59,0.19,1.21,0.29,1.83,0.29c0.19,0,0.38-0.01,0.56-0.03v0.95c0,0,0,0,0,0.01
			c0,0,0,0.01,0,0.01V18c-0.81,0.08-1.63-0.01-2.39-0.29V16.6z M4.65,16.52c0.59,0.19,1.21,0.29,1.83,0.29
			c0.21,0,0.43-0.02,0.64-0.04l0,1.12c-0.83,0.1-1.68,0.01-2.47-0.28V16.52z M7.68,16.64c0.59,0.19,1.21,0.29,1.82,0.29c0,0,0,0,0,0
			c0,0,0,0,0,0c0.11,0,0.23,0,0.34-0.01c0.02,0,0.05,0,0.07-0.01c0.1-0.01,0.19-0.02,0.29-0.03c0.02,0,0.04,0,0.06-0.01
			c0.24-0.03,0.47-0.08,0.7-0.13c0.01,0,0.01,0,0.02,0c0,0,0,0,0.01,0c0.11-0.03,0.23-0.06,0.34-0.1v1.11
			c-1.19,0.43-2.47,0.43-3.66,0V16.64z M11.34,14.37c-0.27,0.1-0.54,0.17-0.81,0.22c-0.07,0.01-0.13,0.02-0.2,0.03
			c-0.07,0.01-0.15,0.02-0.22,0.03c-0.07,0.01-0.13,0.02-0.2,0.02c-0.08,0.01-0.17,0.01-0.25,0.01c-0.09,0-0.17,0-0.26,0
			c-0.1,0-0.2-0.01-0.3-0.01c-0.06,0-0.12-0.01-0.17-0.02c-0.08-0.01-0.17-0.02-0.25-0.03c-0.06-0.01-0.11-0.02-0.17-0.03
			c-0.09-0.02-0.18-0.04-0.27-0.06c-0.05-0.01-0.1-0.02-0.14-0.04c-0.14-0.04-0.27-0.08-0.41-0.13l0-1.05
			c0.6,0.19,1.21,0.29,1.83,0.29s1.23-0.1,1.83-0.29V14.37z M7.12,14.53v0.03h0v0.04c-0.83,0.1-1.68,0.01-2.47-0.28v-1.05
			c0.59,0.19,1.21,0.29,1.83,0.29c0.21,0,0.43-0.02,0.64-0.04L7.12,14.53C7.12,14.53,7.12,14.53,7.12,14.53z M4.09,14.43v0.08v0.1
			c-0.81,0.08-1.63-0.01-2.39-0.29v-1.05c0.59,0.19,1.21,0.29,1.83,0.29c0.19,0,0.38-0.01,0.56-0.03V14.43z M1.7,18.3
			c0.59,0.19,1.21,0.29,1.83,0.29c0.19,0,0.37-0.01,0.56-0.03v0.95v0.13c-0.81,0.08-1.63-0.01-2.39-0.29V18.3z M7.68,18.34
			c0.6,0.19,1.21,0.29,1.83,0.29c0.62,0,1.23-0.1,1.83-0.29v1.05c-1.19,0.43-2.47,0.43-3.66,0V18.34z M8.19,12.88
			c0.14-0.04,0.29-0.07,0.44-0.09c0.01,0,0.01,0,0.02,0c0.72-0.12,1.46-0.09,2.18,0.1C9.96,13.1,9.06,13.1,8.19,12.88z M7.3,12.58
			c-0.11,0.04-0.18,0.15-0.18,0.26v0.12c-0.83,0.1-1.68,0.01-2.47-0.28v-1.11c0.6,0.19,1.21,0.29,1.83,0.29
			c0.62,0,1.23-0.1,1.83-0.29v0.71C7.97,12.34,7.63,12.44,7.3,12.58z M5.17,7.8c0.13-0.03,0.27-0.06,0.4-0.09c0,0,0.01,0,0.01,0
			c0.74-0.13,1.49-0.1,2.22,0.09C6.93,8.02,6.03,8.02,5.17,7.8z M4.09,12.7v0.12v0.05v0.1c-0.63,0.07-1.26,0.02-1.88-0.13
			C2.83,12.68,3.46,12.64,4.09,12.7z M1.7,20.96v-1.02c0.59,0.19,1.21,0.29,1.83,0.29c0.19,0,0.38-0.01,0.56-0.03v0.99
			c0,0.02,0,0.03,0.01,0.05C3.29,21.33,2.47,21.24,1.7,20.96z M4.65,21v-1.09c0.59,0.19,1.21,0.29,1.83,0.29
			c0.21,0,0.43-0.02,0.64-0.04l0,1.04c0,0.03,0,0.06,0.01,0.08C6.3,21.38,5.44,21.28,4.65,21z M7.68,21v-1.02
			c0.6,0.19,1.21,0.29,1.83,0.29c0.62,0,1.23-0.1,1.83-0.29v0.15c0,0,0,0,0,0V21C10.15,21.43,8.87,21.43,7.68,21z M13.6,20.08
			c-0.57,0-1.14-0.06-1.7-0.17v-0.32v-0.08v-1.56V17.9v-1.66v-1.68v0v-1.68c0-0.01,0-0.01,0-0.02c0.01-0.12-0.06-0.23-0.18-0.28
			c-0.92-0.37-1.89-0.5-2.85-0.39v-1c0,0,0-0.01,0-0.01c0,0,0,0,0-0.01V9.48v0V9.45V7.79V7.76c0-0.11-0.07-0.22-0.18-0.26
			C7.84,7.16,6.93,7.02,6.03,7.09c1.55-2.73,4.4-4.41,7.57-4.41c4.8,0,8.7,3.9,8.7,8.7C22.3,16.18,18.4,20.08,13.6,20.08z"/>
		<path d="M16.3,11.1h-2.41V7.79c0-0.16-0.13-0.28-0.28-0.28s-0.28,0.13-0.28,0.28v3.59c0,0.16,0.13,0.28,0.28,0.28h2.69
			c0.16,0,0.28-0.13,0.28-0.28S16.45,11.1,16.3,11.1z"/>
		<path d="M13.6,5.38c0.16,0,0.28-0.13,0.28-0.28V4.2c0-0.16-0.13-0.28-0.28-0.28s-0.28,0.13-0.28,0.28v0.9
			C13.32,5.25,13.45,5.38,13.6,5.38z"/>
		<path d="M13.6,17.33c-0.16,0-0.28,0.13-0.28,0.28v0.9c0,0.16,0.13,0.28,0.28,0.28s0.28-0.13,0.28-0.28v-0.9
			C13.88,17.45,13.76,17.33,13.6,17.33z"/>
		<path d="M8.74,6.09c-0.11-0.11-0.29-0.11-0.4,0c-0.11,0.11-0.11,0.29,0,0.4l0.64,0.64c0.05,0.05,0.13,0.08,0.2,0.08
			s0.14-0.03,0.2-0.08c0.11-0.11,0.11-0.29,0-0.4L8.74,6.09z"/>
		<path d="M18.23,15.58c-0.11-0.11-0.29-0.11-0.4,0s-0.11,0.29,0,0.4l0.64,0.64c0.05,0.05,0.13,0.08,0.2,0.08s0.14-0.03,0.2-0.08
			c0.11-0.11,0.11-0.29,0-0.4L18.23,15.58z"/>
		<path d="M20.76,11.07h-0.9c-0.16,0-0.28,0.13-0.28,0.28s0.13,0.28,0.28,0.28h0.9c0.16,0,0.28-0.13,0.28-0.28
			S20.91,11.07,20.76,11.07z"/>
		<path d="M18.46,6.09l-0.64,0.64c-0.11,0.11-0.11,0.29,0,0.4c0.05,0.05,0.13,0.08,0.2,0.08s0.14-0.03,0.2-0.08l0.64-0.64
			c0.11-0.11,0.11-0.29,0-0.4S18.57,5.98,18.46,6.09z"/>
	</g>
	<rect class="st0" width="24" height="24"/>
</g>
<g id="Legal_Books">
</g>
<g id="Gun">
</g>
<g id="Prison">
</g>
<g id="Lawyer_03">
</g>
<g id="Policeman">
</g>
<g id="Jury">
</g>
<g id="Policeman_Hat">
</g>
<g id="Investigation">
</g>
<g id="Policeman_Equipment">
</g>
<g id="Sheriff_Badge">
</g>
<g id="Briefcase_02">
</g>
<g id="Lawyer_02">
</g>
<g id="Criminal">
</g>
<g id="Judge_02">
</g>
<g id="Legal_Document_02">
</g>
<g id="Agreement_03">
</g>
<g id="Fingerprint">
</g>
<g id="Lawyer_01">
</g>
<g id="Handcuff">
</g>
<g id="Department_of_Family_Services">
</g>
<g id="Constitution_02">
</g>
<g id="Judge_01">
</g>
<g id="Briefcase_01">
</g>
<g id="Courthouse_02">
</g>
<g id="Testimony">
</g>
<g id="Agreement_02">
</g>
<g id="Law_Enforcement">
</g>
<g id="Veredict_02">
</g>
<g id="Agreement_01">
</g>
<g id="Justice_Concept">
</g>
<g id="Veredict_01">
</g>
<g id="ID">
</g>
<g id="Individual">
</g>
<g id="Police_Manual">
</g>
<g id="Courthouse_01">
</g>
<g id="Justice">
</g>
<g id="Legal_Document_01">
</g>
<g id="Security_Badge">
</g>
<g id="Policeman_Badge">
</g>
<g id="Scale_of_Justice">
</g>
<g id="Legal_Study">
</g>
<g id="Jail">
</g>
<g id="Gavel">
</g>
<g id="Legal_Website_01">
</g>
<g id="Constitution_01">
</g>
</svg>
